<svg width="17" height="24" viewBox="0 0 17 24" fill="none" xmlns="http://www.w3.org/2000/svg">
<path d="M16.7149 8.53418L14.3434 0.469091C14.3034 0.333717 14.2209 0.2149 14.108 0.130363C13.9951 0.045825 13.8579 9.71491e-05 13.717 0H3.28302C3.14206 9.71491e-05 3.00491 0.045825 2.89202 0.130363C2.77914 0.2149 2.69657 0.333717 2.65663 0.469091L0.285073 8.53418C-0.0754388 9.73168 -0.0943911 11.0063 0.230356 12.214C0.555104 13.4217 1.21061 14.5144 2.12284 15.3687C3.68626 16.8368 5.70816 17.7189 7.84638 17.8658V22.6909H4.14253C3.96918 22.6909 3.80292 22.7599 3.68035 22.8826C3.55777 23.0054 3.48891 23.1719 3.48891 23.3455C3.48891 23.5191 3.55777 23.6855 3.68035 23.8083C3.80292 23.931 3.96918 24 4.14253 24H12.8575C13.0308 24 13.1971 23.931 13.3197 23.8083C13.4422 23.6855 13.5111 23.5191 13.5111 23.3455C13.5111 23.1719 13.4422 23.0054 13.3197 22.8826C13.1971 22.7599 13.0308 22.6909 12.8575 22.6909H9.15362V17.8658C11.2918 17.7187 13.3136 16.8366 14.8772 15.3687C15.7894 14.5144 16.4449 13.4217 16.7696 12.214C17.0944 11.0063 17.0754 9.73168 16.7149 8.53418ZM3.77214 1.30909H13.2279L15.4622 8.90509C15.4905 9.00327 15.5166 9.10145 15.5395 9.19964C13.0841 10.1891 10.292 9.12 8.79522 8.36182C5.89641 6.89127 3.65013 6.80073 2.05421 7.14764L3.77214 1.30909ZM13.985 14.412C12.4979 15.8062 10.5371 16.582 8.5 16.582C6.46293 16.582 4.50208 15.8062 3.01503 14.412C2.28055 13.7233 1.75301 12.8427 1.49198 11.8696C1.23095 10.8965 1.24684 9.86964 1.53785 8.90509L1.61846 8.63127C2.96274 8.14473 5.13276 7.97127 8.20478 9.52909C9.40309 10.1345 11.3258 10.908 13.3815 10.908C14.1659 10.9132 14.9457 10.7889 15.6898 10.5404C15.6823 11.2677 15.5274 11.9859 15.2343 12.6514C14.9412 13.317 14.5162 13.9159 13.985 14.412Z" fill="#D3D3D3"/>
</svg>
