<svg width="28" height="28" viewBox="0 0 28 28" fill="none" xmlns="http://www.w3.org/2000/svg">
<path d="M4.56152 18.625L5.05859 19.3975L5.3252 19.8115L5.74316 19.5527C6.34772 19.1776 6.94884 18.9165 7.55566 18.7373C6.97915 19.3239 6.45448 20.0117 6.01367 20.8359L5.77344 21.2832L6.22559 21.5156L7.05078 21.9414L7.48828 22.167L7.7207 21.7324C8.00001 21.2102 8.31908 20.7592 8.67188 20.3594C7.72742 22.239 7.14815 23.6892 6.92773 25.3125C5.8345 24.7774 5.44102 23.6413 5.02246 22.3496C4.79592 21.6505 4.5498 20.8726 4.11914 20.2939C3.8953 19.9932 3.61288 19.7324 3.24707 19.5557C3.18715 19.5267 3.12542 19.5012 3.0625 19.4775C3.57816 18.9898 4.00808 18.6361 4.40137 18.376L4.56152 18.625ZM13.4561 9.58789C14.3858 9.59344 15.4286 9.93778 16.1426 10.5498C16.6587 10.9923 16.9983 11.542 17.0928 12.2031C17.1871 12.8638 17.0468 13.7172 16.3936 14.79L16.1289 15.2236L16.5674 15.4814L17.3682 15.9512L17.792 16.2002L18.0479 15.7803C18.5135 15.0156 18.8106 14.2671 18.9521 13.5498C19.043 14.8124 18.5971 16.1045 17.6113 17.0732C16.8019 17.8687 15.7696 18.3078 14.7119 18.3916C13.6614 18.3413 12.3645 17.6621 11.6875 16.6719C11.3536 16.1836 11.1697 15.65 11.1846 15.0811L11.2041 14.835C11.2869 14.1727 11.6488 13.3829 12.5635 12.5117L12.9316 12.1602L12.5742 11.7979L11.9258 11.1416L11.5811 10.792L11.2256 11.1309C10.6015 11.7252 10.1308 12.3446 9.80566 12.9736C9.9787 12.1294 10.3987 11.3232 11.0674 10.666C11.4163 10.3233 11.8061 10.0463 12.2207 9.83594L12.3672 9.77637C12.6647 9.6526 13.0381 9.5854 13.4561 9.58789ZM20.9814 2.58496C21.7114 2.78825 22.1626 3.16848 22.4766 3.63477C22.8664 4.21388 23.0661 4.95564 23.2471 5.78516C23.4195 6.57581 23.5789 7.48044 23.9199 8.21191C24.1895 8.78992 24.5861 9.29091 25.1982 9.60059C24.4654 10.4529 23.4769 10.8921 22.2529 11.0361C22.8422 10.752 23.4163 10.3838 23.959 9.90137L24.3389 9.56348L23.9941 9.18945L23.3701 8.50977L23.0371 8.14746L22.6699 8.47461C21.9239 9.13783 21.1077 9.51921 20.209 9.74902C21.1881 8.68062 22.0013 7.36767 22.4238 5.64258L22.5439 5.15332L22.0537 5.03711L21.1484 4.82227L20.666 4.70801L20.5479 5.19043C20.2539 6.39062 19.7431 7.32117 19.084 8.11816C19.7948 6.48163 20.206 4.99104 20.9814 2.58496Z" stroke="#D3D3D3"/>
</svg>
