<svg width="85" height="120" viewBox="0 0 85 120" fill="none" xmlns="http://www.w3.org/2000/svg">
<path d="M83.5745 42.6709L71.7167 2.34545C71.517 1.66859 71.1042 1.0745 70.5398 0.651813C69.9753 0.229125 69.2896 0.000485746 68.5848 0H16.4149C15.7101 0.000485746 15.0244 0.229125 14.46 0.651813C13.8955 1.0745 13.4827 1.66859 13.283 2.34545L1.42522 42.6709C-0.377339 48.6584 -0.4721 55.0314 1.15164 61.07C2.77537 67.1085 6.05291 72.5721 10.614 76.8436C18.4312 84.1841 28.5406 88.5947 39.2318 89.3291V113.455H20.7125C19.8457 113.455 19.0145 113.799 18.4016 114.413C17.7887 115.027 17.4444 115.859 17.4444 116.727C17.4444 117.595 17.7887 118.428 18.4016 119.041C19.0145 119.655 19.8457 120 20.7125 120H64.2872C65.154 120 65.9852 119.655 66.5981 119.041C67.211 118.428 67.5553 117.595 67.5553 116.727C67.5553 115.859 67.211 115.027 66.5981 114.413C65.9852 113.799 65.154 113.455 64.2872 113.455H45.768V89.3291C56.4588 88.5934 66.5678 84.183 74.3857 76.8436C78.9468 72.5721 82.2243 67.1085 83.8481 61.07C85.4718 55.0314 85.3771 48.6584 83.5745 42.6709ZM18.8606 6.54545H66.1392L77.3106 44.5255C77.4522 45.0164 77.583 45.5073 77.6973 45.9982C65.4202 50.9455 51.4599 45.6 43.976 41.8091C29.4819 34.4564 18.2505 34.0036 10.2709 35.7382L18.8606 6.54545ZM69.9247 72.06C62.4894 79.0311 48.6522 72.06 42.4999 82.9098C54.4258 82.2018 7.1522 60 15.075 72.06C11.4026 68.6165 50.9573 76.9256 49.6522 72.06C48.3471 67.1944 46.5448 65.8927 47.9999 61.07L5.49986 48.5C3.72627 59 19.6398 74.4127 34.9999 82.2018C40.9914 85.2291 56.3199 76.8436 66.5981 76.8436C70.5201 76.8694 74.7285 53.9447 78.449 52.7018C78.4115 56.3385 40.6971 46.1723 39.2318 49.5C37.7664 52.8277 72.5808 69.5797 69.9247 72.06Z" fill="url(#paint0_linear_657_3162)"/>
<defs>
<linearGradient id="paint0_linear_657_3162" x1="42.5" y1="0" x2="42.5" y2="120" gradientUnits="userSpaceOnUse">
<stop stop-color="#660708"/>
<stop offset="1" stop-color="#A4161A"/>
</linearGradient>
</defs>
</svg>
