<svg width="28" height="28" viewBox="0 0 28 28" fill="none" xmlns="http://www.w3.org/2000/svg">
<path d="M4.97156 22.5322C6.29378 21.5802 7.69689 20.8279 9.18089 20.2751C10.6639 19.7213 12.2702 19.4444 14 19.4444C15.7298 19.4444 17.3361 19.7213 18.8191 20.2751C20.3021 20.8289 21.7052 21.5807 23.0284 22.5307C24.0551 21.4677 24.8811 20.2129 25.5064 18.7662C26.1318 17.3175 26.4444 15.7287 26.4444 14C26.4444 10.5519 25.2327 7.61548 22.8091 5.19089C20.3856 2.7663 17.4492 1.55452 14 1.55556C10.5508 1.55659 7.61445 2.76889 5.19089 5.19244C2.76734 7.616 1.55556 10.5519 1.55556 14C1.55556 15.7287 1.86822 17.3175 2.49356 18.7662C3.11889 20.2139 3.94489 21.4687 4.97156 22.5307M10.6836 13.4276C9.78341 12.5274 9.33333 11.4219 9.33333 10.1111C9.33333 8.8003 9.78341 7.69482 10.6836 6.79467C11.5837 5.89452 12.6892 5.44444 14 5.44444C15.3108 5.44444 16.4163 5.89452 17.3164 6.79467C18.2166 7.69482 18.6667 8.8003 18.6667 10.1111C18.6667 11.4219 18.2166 12.5274 17.3164 13.4276C16.4163 14.3277 15.3108 14.7778 14 14.7778C12.6892 14.7778 11.5837 14.3277 10.6836 13.4276ZM14 28C12.0473 28 10.2195 27.6365 8.51667 26.9096C6.81385 26.1826 5.33193 25.1891 4.07089 23.9291C2.80985 22.6691 1.81637 21.1872 1.09045 19.4833C0.364521 17.7795 0.00103925 15.9517 2.21274e-06 14C-0.00103482 12.0483 0.362447 10.2205 1.09045 8.51667C1.81845 6.81282 2.81193 5.33089 4.07089 4.07089C5.33193 2.81089 6.81385 1.81741 8.51667 1.09044C10.2195 0.363481 12.0473 0 14 0C15.9527 0 17.7805 0.363481 19.4833 1.09044C21.1861 1.81741 22.6681 2.81089 23.9291 4.07089C25.1901 5.33089 26.1836 6.81282 26.9096 8.51667C27.6355 10.2205 27.999 12.0483 28 14C28.001 15.9517 27.6376 17.7795 26.9096 19.4833C26.1816 21.1872 25.1881 22.6691 23.9291 23.9291C22.6681 25.1891 21.1861 26.1826 19.4833 26.9096C17.7805 27.6365 15.9527 28 14 28ZM18.2327 25.6916C19.6202 25.1907 20.8196 24.5041 21.8307 23.632C20.8206 22.82 19.6513 22.1786 18.3229 21.7078C16.9944 21.237 15.5535 21.001 14 21C12.4465 20.999 11.0004 21.2297 9.66156 21.6922C8.32274 22.1547 7.15815 22.8013 6.16778 23.632C7.17889 24.5031 8.37874 25.1896 9.76733 25.6916C11.1559 26.1935 12.5668 26.4444 14 26.4444C15.4332 26.4444 16.8441 26.1935 18.2327 25.6916ZM16.2104 12.3216C16.8109 11.7211 17.1111 10.9843 17.1111 10.1111C17.1111 9.23793 16.8109 8.50111 16.2104 7.90067C15.61 7.30022 14.8732 7 14 7C13.1268 7 12.39 7.30022 11.7896 7.90067C11.1891 8.50111 10.8889 9.23793 10.8889 10.1111C10.8889 10.9843 11.1891 11.7211 11.7896 12.3216C12.39 12.922 13.1268 13.2222 14 13.2222C14.8732 13.2222 15.61 12.922 16.2104 12.3216Z" fill="#D3D3D3"/>
</svg>
