<svg width="64" height="64" viewBox="0 0 64 64" fill="none" xmlns="http://www.w3.org/2000/svg">
<path d="M3.20091 47.8533C2.78919 48.265 2.46909 48.7591 2.2616 49.3031C2.0541 49.8471 1.96389 50.4289 1.99687 51.0102C2.02985 51.5915 2.18528 52.1593 2.45298 52.6764C2.72067 53.1935 3.0946 53.6481 3.55025 54.0106C10.4712 59.5722 19.1895 62.406 28.0578 61.9766C36.926 61.5472 45.3297 57.8842 51.6809 51.68C57.8823 45.3294 61.5434 36.9278 61.9728 28.062C62.4022 19.1962 59.5702 10.4801 54.0116 3.55998C53.6499 3.1036 53.1958 2.72881 52.6791 2.46015C52.1625 2.1915 51.5949 2.03505 51.0135 2.00107C50.4322 1.96708 49.8502 2.05631 49.3058 2.26292C48.7613 2.46954 48.2667 2.78886 47.8542 3.19998L3.20091 47.8533Z" stroke="url(#paint0_linear_786_4659)" stroke-width="1.5" stroke-linecap="round" stroke-linejoin="round"/>
<path d="M5.60156 45.4639C10.8466 50.8555 18.018 53.9438 25.5392 54.0498C33.0604 54.1558 40.316 51.2709 45.7109 46.0293C50.9522 40.634 53.8366 33.3782 53.7301 25.857C53.6236 18.3358 50.5349 11.1646 45.1429 5.91992M40.0069 25.9999H44.0016M34.0016 33.9999L38.0016 37.9999M26.0016 39.9999V43.9946" stroke="url(#paint1_linear_786_4659)" stroke-width="2" stroke-linecap="round" stroke-linejoin="round"/>
<defs>
<linearGradient id="paint0_linear_786_4659" x1="32.0028" y1="1.99402" x2="32.0028" y2="62.0191" gradientUnits="userSpaceOnUse">
<stop stop-color="#043976"/>
<stop offset="1" stop-color="#7DD3FC"/>
</linearGradient>
<linearGradient id="paint1_linear_786_4659" x1="29.6673" y1="5.91992" x2="29.6673" y2="54.0526" gradientUnits="userSpaceOnUse">
<stop stop-color="#043976"/>
<stop offset="1" stop-color="#7DD3FC"/>
</linearGradient>
</defs>
</svg>
