<svg width="54" height="54" viewBox="0 0 54 54" fill="none" xmlns="http://www.w3.org/2000/svg">
<path fill-rule="evenodd" clip-rule="evenodd" d="M27 27C33.63 27 39 21.63 39 15C39 8.37 33.63 3 27 3C20.37 3 15 8.37 15 15C15 21.63 20.37 27 27 27ZM42 15C42 23.2875 35.2875 30 27 30C18.7125 30 12 23.2875 12 15C12 6.7125 18.7125 0 27 0C35.2875 0 42 6.7125 42 15ZM4.8345 42.318C3.33 43.533 3 44.4435 3 45V51H51V45C51 44.445 50.67 43.5315 49.164 42.318C47.694 41.1315 45.501 40.0005 42.843 39.0225C37.53 37.068 31.1295 36 27 36C22.8705 36 16.47 37.068 11.157 39.0225C8.499 40.0005 6.306 41.1315 4.8345 42.318ZM27 33C17.9895 33 0 37.5525 0 45V54H54V45C54 37.5525 36.012 33 27 33Z" fill="url(#paint0_linear)"/>
<defs>
<linearGradient id="paint0_linear" x1="27" y1="0" x2="27" y2="54" gradientUnits="userSpaceOnUse">
<stop stop-color="var(--theme-icon-gradient-start)" />
<stop offset="1" stop-color="var(--theme-icon-gradient-end)" />
</linearGradient>
</defs>
</svg>